<svg width="424" height="88" viewBox="0 0 424 88" fill="none" xmlns="http://www.w3.org/2000/svg">
<g filter="url(#filter0_d_1222_419)">
<path d="M403.693 14.3842C402.401 10.2207 398.561 7.374 394.201 7.34829L310.773 6.85614L218.727 6.31316L128.625 5.78165L43.6699 5.2805C40.4403 5.26145 37.4003 6.80335 35.5078 9.4204L11.8324 42.159C9.35536 45.5842 9.2996 50.1971 11.6931 53.6812L23.0539 70.2187C24.9177 72.9317 27.9971 74.5538 31.2885 74.5564L404.189 74.8496C409.718 74.8539 414.201 70.3709 414.197 64.8421L414.185 49.7029C414.185 48.7005 414.033 47.7039 413.736 46.7465L403.693 14.3842Z" fill="#111111"/>
<path d="M9.80662 40.694L33.482 7.95542C35.8477 4.6841 39.6477 2.75673 43.6847 2.78054L128.64 3.28169L218.742 3.81321L310.788 4.35619L394.216 4.84833C399.665 4.88048 404.466 8.43889 406.081 13.6433L416.124 46.0056C416.495 47.2023 416.684 48.448 416.685 49.701L416.697 64.8402C416.702 71.7513 411.098 77.355 404.187 77.3496L31.2866 77.0564C27.1722 77.0531 23.323 75.0255 20.9933 71.6343L9.63251 55.0968C6.64061 50.7416 6.71032 44.9756 9.80662 40.694Z" stroke="#111111" stroke-width="5"/>
<path d="M9.80662 40.694L33.482 7.95542C35.8477 4.6841 39.6477 2.75673 43.6847 2.78054L128.64 3.28169L218.742 3.81321L310.788 4.35619L394.216 4.84833C399.665 4.88048 404.466 8.43889 406.081 13.6433L416.124 46.0056C416.495 47.2023 416.684 48.448 416.685 49.701L416.697 64.8402C416.702 71.7513 411.098 77.355 404.187 77.3496L31.2866 77.0564C27.1722 77.0531 23.323 75.0255 20.9933 71.6343L9.63251 55.0968C6.64061 50.7416 6.71032 44.9756 9.80662 40.694Z" stroke="url(#paint0_linear_1222_419)" stroke-opacity="0.2" stroke-width="5"/>
</g>
<defs>
<filter id="filter0_d_1222_419" x="0.935547" y="0.280273" width="422.261" height="87.5693" filterUnits="userSpaceOnUse" color-interpolation-filters="sRGB">
<feFlood flood-opacity="0" result="BackgroundImageFix"/>
<feColorMatrix in="SourceAlpha" type="matrix" values="0 0 0 0 0 0 0 0 0 0 0 0 0 0 0 0 0 0 127 0" result="hardAlpha"/>
<feOffset dy="4"/>
<feGaussianBlur stdDeviation="2"/>
<feComposite in2="hardAlpha" operator="out"/>
<feColorMatrix type="matrix" values="0 0 0 0 0 0 0 0 0 0 0 0 0 0 0 0 0 0 0.25 0"/>
<feBlend mode="normal" in2="BackgroundImageFix" result="effect1_dropShadow_1222_419"/>
<feBlend mode="normal" in="SourceGraphic" in2="effect1_dropShadow_1222_419" result="shape"/>
</filter>
<linearGradient id="paint0_linear_1222_419" x1="433.214" y1="43.1739" x2="-58.0263" y2="51.7818" gradientUnits="userSpaceOnUse">
<stop stop-color="white" stop-opacity="0"/>
<stop offset="1" stop-color="white"/>
</linearGradient>
</defs>
</svg>
