<svg width="426" height="77" viewBox="0 0 426 77" fill="none" xmlns="http://www.w3.org/2000/svg">
<g filter="url(#filter0_d_1222_419)">
<path d="M396.573 13.1241C395.135 9.18792 391.394 6.56641 387.203 6.55717L304.967 6.37585L214.481 6.17633L125.907 5.98103L41.9363 5.79589C39.0147 5.78944 36.2363 7.06102 34.3316 9.27639L12.3719 34.8172C9.21496 38.489 9.14239 43.895 12.1996 47.6502L21.854 59.5087C23.7577 61.847 26.6148 63.2015 29.63 63.1952L404.99 62.4064C405.955 62.4043 406.905 62.65 407.748 63.1199V63.1199C412.769 65.9192 418.268 60.2893 415.352 55.3351L406.977 41.1065C406.669 40.5845 406.41 40.0357 406.202 39.4668L396.573 13.1241Z" fill="#DFBE7A"/>
<path d="M10.4762 33.1873L32.4359 7.64653C34.8169 4.87731 38.2898 3.28784 41.9418 3.29589L125.913 3.48104L214.487 3.67634L304.973 3.87585L387.209 4.05718C392.447 4.06873 397.123 7.34561 398.922 12.2659L408.55 38.6086C408.706 39.0352 408.901 39.4469 409.131 39.8383L417.506 54.0669C421.716 61.2179 413.778 69.344 406.53 65.3035C406.061 65.042 405.533 64.9052 404.995 64.9064L29.6352 65.6952C25.8662 65.7031 22.2949 64.01 19.9153 61.0871L10.2609 49.2286C6.43934 44.5346 6.53007 37.777 10.4762 33.1873Z" stroke="#DFBE7A" stroke-width="5"/>
<path d="M10.4762 33.1873L32.4359 7.64653C34.8169 4.87731 38.2898 3.28784 41.9418 3.29589L125.913 3.48104L214.487 3.67634L304.973 3.87585L387.209 4.05718C392.447 4.06873 397.123 7.34561 398.922 12.2659L408.55 38.6086C408.706 39.0352 408.901 39.4469 409.131 39.8383L417.506 54.0669C421.716 61.2179 413.778 69.344 406.53 65.3035C406.061 65.042 405.533 64.9052 404.995 64.9064L29.6352 65.6952C25.8662 65.7031 22.2949 64.01 19.9153 61.0871L10.2609 49.2286C6.43934 44.5346 6.53007 37.777 10.4762 33.1873Z" stroke="url(#paint0_linear_1222_419)" stroke-opacity="0.2" stroke-width="5"/>
</g>
<defs>
<filter id="filter0_d_1222_419" x="0.95459" y="0.795898" width="424.238" height="76.0984" filterUnits="userSpaceOnUse" color-interpolation-filters="sRGB">
<feFlood flood-opacity="0" result="BackgroundImageFix"/>
<feColorMatrix in="SourceAlpha" type="matrix" values="0 0 0 0 0 0 0 0 0 0 0 0 0 0 0 0 0 0 127 0" result="hardAlpha"/>
<feOffset dy="4"/>
<feGaussianBlur stdDeviation="2"/>
<feComposite in2="hardAlpha" operator="out"/>
<feColorMatrix type="matrix" values="0 0 0 0 0 0 0 0 0 0 0 0 0 0 0 0 0 0 0.25 0"/>
<feBlend mode="normal" in2="BackgroundImageFix" result="effect1_dropShadow_1222_419"/>
<feBlend mode="normal" in="SourceGraphic" in2="effect1_dropShadow_1222_419" result="shape"/>
</filter>
<linearGradient id="paint0_linear_1222_419" x1="425.236" y1="36.1161" x2="-57.7084" y2="44.5786" gradientUnits="userSpaceOnUse">
<stop stop-color="white" stop-opacity="0"/>
<stop offset="1" stop-color="white"/>
</linearGradient>
</defs>
</svg>
