<svg width="226" height="101" viewBox="0 0 226 101" fill="none" xmlns="http://www.w3.org/2000/svg">
<path d="M0.5 23C0.5 10.5736 10.5736 0.5 23 0.5H153.534C158.891 0.5 163.862 3.28663 166.657 7.85645C169.635 12.7233 174.929 15.6911 180.634 15.6911H190.118C197.922 15.6911 205.17 19.7359 209.267 26.3787L222.15 47.2635C224.34 50.8143 225.5 54.904 225.5 59.0759V75.0248C225.5 83.4023 220.846 91.0861 213.421 94.9661L207.727 97.9413C204.511 99.6221 200.936 100.5 197.307 100.5H26.0333C17.862 100.5 10.3331 96.0699 6.36474 88.927L3.33146 83.4671C1.47449 80.1245 0.5 76.3639 0.5 72.5401V23Z" fill="#495c94" stroke="#EABD49"/>
</svg>
