<svg width="211" height="101" viewBox="0 0 211 101" fill="none" xmlns="http://www.w3.org/2000/svg">
<path d="M210.5 23C210.5 10.5736 200.426 0.5 188 0.5H68.0908C62.8615 0.5 58.0333 3.30263 55.4399 7.8435C52.6685 12.6961 47.509 15.6911 41.9207 15.6911H34.8123C26.765 15.6911 19.3304 19.9888 15.3144 26.9624L3.50215 47.4735C1.53526 50.8889 0.5 54.761 0.5 58.7022V75.4726C0.5 83.6182 4.90256 91.1278 12.0105 95.1063L16.5259 97.6337C19.8837 99.5131 23.6674 100.5 27.5154 100.5H185.35C193.752 100.5 201.454 95.8184 205.323 88.3597L207.973 83.2497C209.633 80.0489 210.5 76.4958 210.5 72.89V23Z" fill="#495c94" stroke="#fff"/>
</svg>
